Coordinates
version=1
nRows=6
nColumns=63
inDegrees=yes

Units are S.I. units (second, meters, Newtons, ...)
If the header above contains a line with 'inDegrees', this indicates whether rotational values are in degrees (yes) or radians (no).

endheader
time	pelvis_tilt	pelvis_list	pelvis_rotation	pelvis_tx	pelvis_ty	pelvis_tz	hip_flexion_r	hip_adduction_r	hip_rotation_r	knee_angle_r	knee_angle_r_beta	ankle_angle_r	subtalar_angle_r	mtp_angle_r	hip_flexion_l	hip_adduction_l	hip_rotation_l	knee_angle_l	knee_angle_l_beta	ankle_angle_l	subtalar_angle_l	mtp_angle_l	L5_S1_Flex_Ext	L5_S1_Lat_Bending	L5_S1_axial_rotation	L4_L5_Flex_Ext	L4_L5_Lat_Bending	L4_L5_axial_rotation	L3_L4_Flex_Ext	L3_L4_Lat_Bending	L3_L4_axial_rotation	L2_L3_Flex_Ext	L2_L3_Lat_Bending	L2_L3_axial_rotation	L1_L2_Flex_Ext	L1_L2_Lat_Bending	L1_L2_axial_rotation	L1_T12_Flex_Ext	L1_T12_Lat_Bending	L1_T12_axial_rotation	Abs_r3	Abs_r2	Abs_r1	Abs_t1	Abs_t2	neck_flexion	neck_bending	neck_rotation	arm_flex_r	arm_add_r	arm_rot_r	elbow_flex_r	pro_sup_r	wrist_flex_r	wrist_dev_r	arm_flex_l	arm_add_l	arm_rot_l	elbow_flex_l	pro_sup_l	wrist_flex_l	wrist_dev_l
3.583333	-3.064243	0.138231	95.885851	0.175841	0.928365	0.585051	-3.952503	-3.711136	-8.662419	7.162501	0.125009	20.417283	10.088637	0.000000	0.097582	2.217895	-4.522123	11.172842	0.195003	24.743989	2.824037	0.000000	-0.020334	-0.503035	-0.466703	-0.037763	-0.669037	-0.495872	-0.033407	-1.223080	-0.495872	-0.023240	-1.223080	-0.408365	-0.018883	-1.025790	-0.379196	-0.011619	-0.779202	-0.350027	-0.145247	-5.690437	-2.595662	0.000000	0.000000	5.622535	0.524865	-4.114224	32.930574	-21.875303	-13.828978	136.809284	88.936874	-13.632134	2.150863	32.789612	-32.174817	-8.461795	139.157832	88.626351	-4.087693	0.625713
3.600000	-3.089854	0.091174	95.880521	0.175926	0.928472	0.584995	-3.889909	-3.703802	-8.449365	7.109023	0.124076	20.424464	9.817190	0.000000	0.151540	2.230733	-4.721695	11.127239	0.194207	24.824953	3.177012	0.000000	-0.020394	-0.504434	-0.411059	-0.037873	-0.670897	-0.436750	-0.033505	-1.226481	-0.436750	-0.023308	-1.226481	-0.359677	-0.018938	-1.028642	-0.333985	-0.011653	-0.781368	-0.308294	-0.145671	-5.706260	-2.286187	0.000000	0.000000	5.639222	0.557395	-4.267831	32.034824	-21.801797	-14.484885	137.347203	88.851852	-13.120368	3.533714	32.120888	-31.968593	-8.483116	139.224343	88.716563	-4.167461	1.511377
3.616667	-3.118910	0.055211	95.855612	0.176051	0.928587	0.584969	-3.832949	-3.706304	-8.287409	7.079556	0.123562	20.414874	9.605066	0.000000	0.190070	2.238226	-5.030807	11.081261	0.193404	24.871231	3.643384	0.000000	-0.020765	-0.505911	-0.349779	-0.038564	-0.672861	-0.371640	-0.034116	-1.230071	-0.371640	-0.023733	-1.230071	-0.306056	-0.019283	-1.031653	-0.284195	-0.011865	-0.783656	-0.262334	-0.148326	-5.722963	-1.945364	0.000000	0.000000	5.561912	0.617926	-4.410261	31.240285	-21.760680	-15.095320	137.847199	88.771594	-12.696033	4.711832	31.526203	-31.733910	-8.521615	139.292638	88.816123	-4.152079	2.451816
3.633333	-3.148245	0.046070	95.850336	0.176191	0.928733	0.584991	-3.812123	-3.704143	-8.173365	7.055497	0.123142	20.374272	9.392132	0.000000	0.203878	2.230889	-5.421573	11.046659	0.192801	24.883051	4.220972	0.000000	-0.024961	-0.507305	-0.296147	-0.046354	-0.674715	-0.314656	-0.041008	-1.233460	-0.314656	-0.028527	-1.233460	-0.259129	-0.023178	-1.034495	-0.240620	-0.014262	-0.785815	-0.222110	-0.178291	-5.738731	-1.647082	0.000000	0.000000	5.424566	0.707153	-4.496616	30.564457	-21.720534	-15.637915	138.264100	88.688180	-12.285439	5.576561	30.993953	-31.522025	-8.583759	139.370075	88.921582	-4.132022	3.341190
3.650000	-3.188503	0.034256	95.834164	0.176366	0.928866	0.585048	-3.786522	-3.718363	-8.082243	7.049869	0.123043	20.319043	9.200013	0.000000	0.217990	2.227928	-5.893195	11.016010	0.192266	24.864087	4.856829	0.000000	-0.028137	-0.510303	-0.247877	-0.052254	-0.678704	-0.263369	-0.046227	-1.240752	-0.263369	-0.032158	-1.240752	-0.216892	-0.026128	-1.040611	-0.201400	-0.016078	-0.790460	-0.185908	-0.200981	-5.772655	-1.378617	0.000000	0.000000	5.239132	0.821619	-4.540291	29.998268	-21.674209	-16.083142	138.601618	88.617471	-11.968288	6.153085	30.508340	-31.332708	-8.674278	139.468154	89.021072	-4.134114	4.128460
3.666667	-3.239359	0.025012	95.774543	0.176597	0.928994	0.585132	-3.757852	-3.750580	-7.951445	7.058661	0.123197	20.252177	9.004387	0.000000	0.211231	2.250972	-6.286936	10.954401	0.191190	24.780591	5.286303	0.000000	-0.031597	-0.515270	-0.194592	-0.058678	-0.685309	-0.206754	-0.051910	-1.252828	-0.206754	-0.036112	-1.252828	-0.170268	-0.029341	-1.050739	-0.158106	-0.018054	-0.798153	-0.145944	-0.225692	-5.828838	-1.082262	0.000000	0.000000	5.023632	0.957821	-4.620903	29.506994	-21.649550	-16.471714	138.880966	88.556370	-11.715237	6.488990	30.110946	-31.125424	-8.784866	139.563277	89.101806	-3.960288	4.811787
